<svg id="icon-email" data-name="icon-email" xmlns="http://www.w3.org/2000/svg" viewBox="-10748 -5875 27.468 19.926">
  <path d="M24.635,0H2.833A2.833,2.833,0,0,0,0,2.83V17.093a2.836,2.836,0,0,0,2.833,2.833H24.639a2.833,2.833,0,0,0,2.83-2.833V2.83A2.837,2.837,0,0,0,24.635,0Zm0,17.526H2.833a.421.421,0,0,1-.307-.132l7.433-6.627,3.378,3.011a.6.6,0,0,0,.8,0l3.378-3.011,7.426,6.627A.421.421,0,0,1,24.635,17.526Zm-10.9-5-11.212-10A.426.426,0,0,1,2.83,2.4H24.635a.436.436,0,0,1,.307.128ZM2.4,4.03,9.053,9.961,2.4,15.9ZM18.412,9.961,25.065,4.03V15.893Z" transform="translate(-10748 -5875)"/>
</svg>
