<svg id="icon-youtube" data-name="icon-youtube" xmlns="http://www.w3.org/2000/svg" viewBox="0 0 1012.65 710.02"><path d="M363.32,0h284c4.79.7,9.57,1.84,14.39,2C720,4.24,778.39,5.53,836.67,8.8c24.09,1.35,48.92,3.79,71.72,11,66.28,21.07,86.52,76.76,93.38,137.76,14.9,132.39,14,265.11.31,397.64-9.91,95.92-58.85,143.43-154.33,146.26C706,705.7,564.28,709.36,422.53,710c-86.12.39-172.31-4.53-258.38-8.72-38.35-1.87-76-9-106.44-36.2C29.46,639.88,18.9,605.92,13,570.91,6.58,532.69,4.16,493.79,0,455.19Q0,355,0,254.74C1.4,241,2,227.18,4.36,213.63c6.87-40.12,10.85-81.2,22.58-119.91,14.34-47.3,52.23-71.88,99.87-80.51,17.66-3.2,35.84-3.87,53.83-4.77C241.52,5.41,302.42,2.78,363.32,0Zm39.52,203.55V486.44l272-141.06Z"/></svg>