
<svg id="icon-cancel" data-name="icon-cancel" xmlns="http://www.w3.org/2000/svg" viewBox="0 0 757.7 757.7">
<path fill="#fff" d="M34,711.7c9.1,0,17.6-3.5,24-9.9l298-298l297.9,298c6.4,6.4,14.9,9.9,24,9.9s17.6-3.5,24-9.9c13.2-13.2,13.2-34.7,0-48
	l-298-298l298-298c6.4-6.4,9.9-14.9,9.9-24s-3.5-17.6-9.9-24c-6.4-6.4-14.9-9.9-24-9.9s-17.6,3.5-24,9.9L355.9,308L57.9,10
	c-6.4-6.4-14.9-9.9-24-9.9S16.3,3.6,9.9,10C3.5,16.4,0,24.9,0,34c0,9.1,3.5,17.6,9.9,24l298,298L10,653.8c-6.4,6.4-9.9,14.9-9.9,24
	s3.5,17.6,9.9,24C16.4,708.2,24.9,711.7,34,711.7z"/>
</svg>
