<svg id="bm-logo" data-name="bm-logo" xmlns="http://www.w3.org/2000/svg" viewBox="0 0 1010.51 811.66"><path class="bm-logo" fill="#a2893d" d="M374.26 501.57v253.72c0 9.69-2.06 16-4.95 19.52s-6.58 5.28-13.9 5.4h-1.32c-6.61-.11-9.91-1.79-12.57-5-2.86-3.47-5-9.93-4.94-20V501.57h-27.82v261.49a53.1 53.1 0 0 0 2.83 17.3 52.07 52.07 0 0 0 8.86 15.87 43.13 43.13 0 0 0 13.26 11.45 33 33 0 0 0 15.48 3.89h12.52a32.79 32.79 0 0 0 15.41-3.89 43.14 43.14 0 0 0 13.26-11.45 55.31 55.31 0 0 0 9-15.73 50.71 50.71 0 0 0 3.05-17.45V501.57zm417.98 30.81a54.71 54.71 0 0 0-9.27-15.7 44.53 44.53 0 0 0-13.49-12 33.33 33.33 0 0 0-16.17-4.22h-13a33.29 33.29 0 0 0-16.16 4.22 44.93 44.93 0 0 0-13.64 12.14 50.45 50.45 0 0 0-11.93 32.94v213.36a51.75 51.75 0 0 0 2.91 17.27 61.49 61.49 0 0 0 8.12 15.46c3.8 4.89 7.29 8.57 11.1 11.26 3.65 2.55 7.7 4.41 12.38 4.44h20.23a34.74 34.74 0 0 0 15.92-3.89 43.69 43.69 0 0 0 13.76-11.4 54.26 54.26 0 0 0 9.27-15.71 48.66 48.66 0 0 0 3.15-17.4V549.79a48.87 48.87 0 0 0-3.18-17.41zM727 705.8V557.18c0-10.13 2.17-16.74 5.23-20.34s7-5.44 14.65-5.55c7.64.1 11.6 2 14.65 5.55s5.25 10.2 5.22 20.33v198.16c0 9.82-2.15 16.26-5.22 19.91s-7 5.43-14.65 5.53h-1.39c-6.9-.11-10.41-1.81-13.26-5.12-3.05-3.59-5.26-10.21-5.23-20.34zm-1.74 95.6zM82.18 528.1a101.38 101.38 0 0 0-5.35-19.1 119.12 119.12 0 0 0-7.76-16.52 33.52 33.52 0 0 0-9.23-10.65 87.8 87.8 0 0 0 7.57-22 124.67 124.67 0 0 0 2.4-25v-53.61a120.79 120.79 0 0 0-2.59-25.33 95.49 95.49 0 0 0-8.12-23.13q-5.54-11-11.63-16.53t-12.74-5.51L0 310v501.6h48.39q6.65 0 12.74-5.13t11.63-16.16a101.58 101.58 0 0 0 8.31-23.14 113.65 113.65 0 0 0 2.77-25.33V547.93a115.9 115.9 0 0 0-1.66-19.83zM48.94 351.85q6.83 14 6.83 41.86v27.91q0 27.92-6.83 41.86c-3.88 7.92-9.5 12.43-16.85 13.61V338.24q11.02 1.76 16.85 13.61zm20.87 257.76v119q0 27.17-7 41.12t-21.05 14h-9.67V505.34h9.65q14 0 21.05 13.95t7 41.86zm119.14-90.84v-17.24h-50.59v-.06h-31.99v310.11h31.99v-.03h50.59v-17.26h-50.59V622.27h24.26v-17.25h-24.26v-86.25h50.59zm290.86-17.32h-65.5v17.24h16.75v292.89h32V518.69h16.76zm416.69 27.84a50.73 50.73 0 0 0-8.1-14.29 38.53 38.53 0 0 0-11.35-10.69 24.66 24.66 0 0 0-12.44-3.41h-47.18v310.68h47.18a26 26 0 0 0 12.44-3.19 37.29 37.29 0 0 0 11.35-10 50.63 50.63 0 0 0 8.1-14.33 46 46 0 0 0 2.7-15.7V545a46 46 0 0 0-2.7-15.71zm-11 43.44v187.45q0 16.83-6.85 25.47t-20.53 8.64h-8.63V518.14h8.63q13.68 0 20.53 8.64t6.85 25.94zm125.01-54.6v-17.29h-86.04v310.74h86v-17.3h-54.02V621.86h26.69v-17.29h-26.69v-86.44zM673.13 309.97H659.1l-42.11 118.18-23.48-65.9v-.54h-.19l-18.43-51.74h-13.67v501.32h13.67v-.09h18.62V411.84l23.48 65.48 23.9-65.83v400.09h31.99v-.29h.25V309.97zM495 811.58h33.87V63.45H495zm16.94-763.9a23.84 23.84 0 1 0-23.8-23.85 23.82 23.82 0 0 0 23.77 23.85zM250.46 501l-46.83 57.89v252.77l28.24-.44V633H269v178.12l28.25.09V558zM269 617h-37.13v-48.86l18.59-22.92L269 568z"/></svg>