<svg data-name="icon-member" xmlns="http://www.w3.org/2000/svg" viewBox="0 0 959.9 990.03"><path class="icon-member" d="M443.4 0h73.1c7 1.7 13.9 3.9 21 5.1 119.8 20.3 184.2 99.1 172.2 211.8-2.1 20.1-6.1 39.1 11.3 55.9 6 5.8 8.8 18.1 8.1 27.1-3.3 38.5 3.1 84.1-15.7 113.4-23.8 37.1-30.7 80.9-57.5 115.1-6.2 7.9-13 15.3-21.5 25.2 11.6 3 19.2 4.8 26.7 7 62.8 18.3 125.9 36.1 188.4 55.3 60 18.4 98 57.8 110.4 119.8v29c-3.4 27.1-7.5 54.1-10 81.2-5.7 62.3-43.6 109.4-102 115.4-113.6 11.6-227.5 22.9-341.6 27.5-126.6 5.1-252.8-6.1-378.3-24.7-75.2-11.2-111.5-47.8-118.9-123-2.2-22.3-6-44.5-9.1-66.7V726c16.9-58.4 55.9-94.1 113.7-111.7 48.7-14.8 96.9-31.4 145.7-46 20.3-6.1 41.7-8.9 63.7-13.5-13.7-20.5-29.8-36.8-36.4-56.4-8.6-25.5-12.3-52-36.6-69.2-3.9-2.8-6.1-9.8-6.7-15.1-4.8-39.1-9.7-78.3-12.8-117.5-.7-8.8 3-21.1 9.3-26.6 16.7-14.6 12.3-31.2 10.2-48.8-12.4-102.4 35.3-175.7 134.6-206.5 19.2-6 39.1-9.9 58.7-14.7zm37 912.6c116.9-10.8 233-21.6 349.2-32.2 21-1.9 32.5-13.4 34.8-33.7 3.2-28 5.9-56.1 8.3-84.2 3-35-4.5-47.8-36.9-62.1a837.45 837.45 0 0 0-211.5-62.1c-81.1-12.6-84.5-17.1-70.5-98 2.6-14.7 3.7-35.4 13.4-42.1 29.3-20.3 29.3-49 33.9-78.4 2.3-14.8 8.8-32.2 19.4-42 23-21.3 25.9-41 6.9-67.6-6.4-8.9-9.2-22.4-8.8-33.6.9-26.5 4.9-52.9 7.2-79.4 3.8-43.4-13.6-75.3-53.6-93.8-55.7-25.8-112.9-27.5-170.3-6.4-52.7 19.4-72 51.1-67.3 106.5 1.9 22.5 4.5 44.9 6.9 67.3 2 18.5-4.5 32.5-15.1 48.5-7.7 11.8-6.8 44.1.9 48.3 31.4 17.3 31.3 44.8 33.7 72.7 1.8 20.8 6.4 38.3 25.9 51.4 9.1 6.1 13.8 21.1 17 32.9 4.2 15.4 4.7 31.8 7.1 47.8 5.9 40.2-6.9 56.5-47.5 61.8-85 11-166.5 34.2-244.9 68.4-20.9 9.1-33.6 24.3-32.5 46.3 1.6 32.9 6.1 65.8 9.8 98.6 2.4 20.6 14.9 31.2 35.5 33.1 116.1 10.6 232.2 21.3 349 32z"/></svg>