<svg id="icon-close" data-name="icon-close" xmlns="http://www.w3.org/2000/svg" viewBox="0 0 807.22 806.39"><path fill="#a2893d" d="M0,83V82Q24.2,58,48.39,33.94C59.66,22.69,70.8,11.32,82,0h1c1,1.26,2,2.62,3.12,3.76C190.58,108.27,401.32,320.45,402.69,322.87c2-2.68,213.79-214.93,319.09-320.25C722.58,1.81,723.26.88,724,0h1c1.16,1.36,2.23,2.81,3.49,4.07q37.11,37.14,74.25,74.24c1.25,1.25,2.44,2.58,4.49,4.74L485.3,404.58,805.23,724.34l-81.58,82-321-321L81.79,806.07c-1.05-1-2.27-2.12-3.43-3.29Q55.54,780,32.73,757.19C21.88,746.4,10.91,735.73,0,725v-1c1.24-1.07,2.56-2.07,3.71-3.22,104.61-104.6,316-316.17,317.14-317.42-1.11-1.18-2-2.17-2.93-3.1Q160.68,243,3.42,85.72A37.26,37.26,0,0,0,0,83Z"/></svg>