<svg id="icon-google" data-name="icon-google" xmlns="http://www.w3.org/2000/svg" viewBox="0 0 1721.95 1091.06"><path d="M767,286.17,915,143.72S754.91-35,467,6.17C178.36,47.5,54.36,286.84,21.69,380.84,1,433.5-85.62,847.35,328.36,1046.84c416.33,163.33,812.21-147.29,738.21-578.29H547.69v187h310S818.19,903.17,530.24,889.7C231,862.84,139.69,570.17,253.69,372.17S621.69,150.17,767,286.17Z"/><polygon points="1721.95 479.33 1563.45 479.33 1563.45 321.81 1410.43 321.81 1410.43 479.33 1251.93 479.33 1251.93 629.34 1410.43 629.34 1410.43 786.86 1563.45 786.86 1563.45 629.34 1721.95 629.34 1721.95 479.33"/></svg>