
<svg id="icon-line" data-name="icon-line" xmlns="http://www.w3.org/2000/svg" viewBox="0 0 626.9 627">
<g>
	<path d="M513.5,0H114.3C51.6-0.1,0.1,50.7,0,113.4v399.3C-0.1,575.4,50.7,626.9,113.4,627h399.3
		c62.7,0.1,114.2-50.7,114.3-113.4V114.3C627,51.6,576.3,0.1,513.5,0z M491.8,399.9L491.8,399.9c-47.9,55.1-155,122.3-179.3,132.5
		c-24.4,10.3-20.8-6.5-19.8-12.3c0.6-3.4,3.3-19.5,3.3-19.5c0.8-5.8,1.6-14.9-0.7-20.6c-2.6-6.4-12.7-9.7-20.1-11.3
		C165.4,454.2,84.2,377.5,84.2,285.9c0-102.1,102.4-185.2,228.3-185.2c125.9,0,228.3,83.1,228.3,185.2
		C540.7,326.8,524.9,363.6,491.8,399.9z"/>
	<g>
		<path d="M266.1,236.6h-16c-2.5,0-4.4,2-4.4,4.4v99.5c0,2.5,2,4.4,4.4,4.4h16c2.5,0,4.4-2,4.4-4.4V241
			C270.5,238.5,268.5,236.6,266.1,236.6"/>
		<path d="M376.3,236.6h-16c-2.5,0-4.4,2-4.4,4.4v59.1l-45.6-61.6c-0.1-0.2-0.2-0.3-0.3-0.5c0,0,0,0,0,0
			c-0.1-0.1-0.2-0.2-0.3-0.3c0,0-0.1-0.1-0.1-0.1c-0.1-0.1-0.2-0.1-0.2-0.2c0,0-0.1-0.1-0.1-0.1c-0.1-0.1-0.2-0.1-0.2-0.2
			c0,0-0.1-0.1-0.1-0.1c-0.1,0-0.2-0.1-0.2-0.1c0,0-0.1,0-0.1-0.1c-0.1,0-0.2-0.1-0.3-0.1c-0.1,0-0.1,0-0.1-0.1
			c-0.1,0-0.2-0.1-0.3-0.1c-0.1,0-0.1,0-0.2,0c-0.1,0-0.2,0-0.3-0.1c-0.1,0-0.1,0-0.2,0c-0.1,0-0.2,0-0.2,0c-0.1,0-0.2,0-0.2,0
			c-0.1,0-0.1,0-0.2,0h-16c-2.5,0-4.4,2-4.4,4.4v99.5c0,2.5,2,4.4,4.4,4.4h16c2.5,0,4.4-2,4.4-4.4v-59.1l45.6,61.6
			c0.3,0.4,0.7,0.8,1.1,1.1c0,0,0,0,0,0c0.1,0.1,0.2,0.1,0.3,0.2c0,0,0.1,0,0.1,0.1c0.1,0,0.1,0.1,0.2,0.1c0.1,0,0.1,0.1,0.2,0.1
			c0,0,0.1,0,0.1,0.1c0.1,0,0.2,0.1,0.3,0.1c0,0,0,0,0.1,0c0.4,0.1,0.7,0.2,1.1,0.2h16c2.5,0,4.4-2,4.4-4.4V241
			C380.7,238.5,378.7,236.6,376.3,236.6"/>
		<path d="M227.5,320H184v-79c0-2.5-2-4.4-4.4-4.4h-16c-2.5,0-4.4,2-4.4,4.4v99.4v0c0,1.2,0.5,2.3,1.2,3.1
			c0,0,0,0,0.1,0.1c0,0,0,0,0.1,0.1c0.8,0.8,1.9,1.2,3.1,1.2h0h64c2.5,0,4.4-2,4.4-4.4v-16C231.9,322,229.9,320,227.5,320"/>
		<path d="M464.7,261.5c2.5,0,4.4-2,4.4-4.4v-16c0-2.5-2-4.5-4.4-4.5h-64h0c-1.2,0-2.3,0.5-3.1,1.3c0,0,0,0-0.1,0
			c0,0-0.1,0.1-0.1,0.1c-0.8,0.8-1.2,1.9-1.2,3.1v0v99.4v0c0,1.2,0.5,2.3,1.2,3.1c0,0,0,0,0.1,0.1c0,0,0,0,0.1,0.1
			c0.8,0.8,1.9,1.2,3.1,1.2h0h64c2.5,0,4.4-2,4.4-4.4v-16c0-2.5-2-4.4-4.4-4.4h-43.5v-16.8h43.5c2.5,0,4.4-2,4.4-4.4v-16
			c0-2.5-2-4.5-4.4-4.5h-43.5v-16.8H464.7z"/>
	</g>
</g>
</svg>
