<svg id="icon-play" data-name="icon-play" xmlns="http://www.w3.org/2000/svg" viewBox="0 0 360 360">
<g>
	<path fill="#fff" d="M180,0C80.7,0,0,80.7,0,180s80.7,180,180,180c99.3,0,180-80.7,180-180S279.3,0,180,0z M180,340.9
		c-88.7,0-160.9-72.2-160.9-160.9S91.3,19.1,180,19.1c88.7,0,160.9,72.2,160.9,160.9S268.7,340.9,180,340.9z"/>
	<path fill="#fff" d="M259.6,172.9l-117.8-68c-1.3-0.7-2.7-1.1-4.1-1.1c-1.4,0-2.9,0.4-4.1,1.1c-2.5,1.5-4.1,4.2-4.1,7.1V248
		c0,2.9,1.6,5.7,4.1,7.1c2.6,1.5,5.7,1.5,8.3,0l117.8-68c2.6-1.5,4.1-4.2,4.1-7.1C263.7,177.1,262.2,174.3,259.6,172.9z
		 M145.9,233.8V126.3L239,180L145.9,233.8z"/>
</g>
</svg>
