<svg id="icon-facebook" data-name="icon-facebook" xmlns="http://www.w3.org/2000/svg" viewBox="0 0 1023.12 1024"><path d="M972,1024H706c-.11-2-.31-4-.31-6q0-191.48,0-383a74.66,74.66,0,0,1,.9-8h12.71c36.66,0,73.33-.22,110,.17,7.76.08,10-2.38,10.91-10,4-34.06,8.71-68,13.09-102,1.8-14,3.36-28,5.14-42.84h-152c0-39.44-1.53-77.46.44-115.3,1.89-36.47,22.69-55.09,59.5-57,21.28-1.1,42.63-.78,63.94-1,10.93-.12,21.86,0,33.08,0V161.34a24.94,24.94,0,0,0-4.32-1c-44.9-1.56-89.88-5.58-134.68-4.09-98,3.26-169.69,73.43-176,171.48-2.83,43.82-1.48,87.9-2,131.87,0,3.9,0,7.8,0,12.9H413.73V627.41h131.9V1023H535.06q-235.47,0-470.94-.1a91.42,91.42,0,0,1-22.72-2.47c-23-6-35-22.75-41.4-44.43V46C6.84,22.17,22.25,6.92,46,0H976c37.66,10.9,47.14,35.76,47.12,64.91q-.3,446.72-.22,893.45c0,7.92-.43,16.12-2.47,23.71C1013.8,1006.69,995.84,1018.9,972,1024Z"/></svg>