<svg id="icon-twitter" data-name="icon-twitter" xmlns="http://www.w3.org/2000/svg" viewBox="0 0 400 400">
	<path d="M350,0H50C22.4,0,0,22.4,0,50v300c0,27.6,22.4,50,50,50h300c27.6,0,50-22.4,50-50V50C400,22.4,377.6,0,350,0z
	 M299.4,149.1c0.1,2.2,0.1,4.4,0.1,6.6c0,67.7-51.6,145.9-145.9,145.9c-28.9,0-55.9-8.5-78.5-22.9c4,0.5,8.1,0.7,12.2,0.7
	c24,0,46.1-8.2,63.7-22c-22.4-0.4-41.4-15.2-47.9-35.6c3.1,0.6,6.3,0.9,9.6,0.9c4.7,0,9.2-0.6,13.5-1.8
	c-23.4-4.7-41.1-25.5-41.1-50.3c0-0.3,0-0.5,0-0.7c6.9,3.8,14.8,6.1,23.2,6.4c-13.7-9.2-22.8-24.9-22.8-42.7
	c0-9.4,2.5-18.2,6.9-25.8c25.3,31,63.1,51.5,105.7,53.6c-0.8-3.8-1.3-7.7-1.3-11.7c0-28.3,23-51.3,51.3-51.3
	c14.7,0,28,6.2,37.4,16.2c11.7-2.3,22.7-6.5,32.6-12.4c-3.9,12-12,22.1-22.6,28.4c10.4-1.3,20.3-4,29.5-8.1
	C318.1,132.8,309.4,141.9,299.4,149.1z"/>
</svg>
